<svg width="207" height="99" viewBox="0 0 207 99" fill="none" xmlns="http://www.w3.org/2000/svg">
<path d="M59.9434 88.3055C59.9887 89.4879 61.6095 89.7056 61.887 88.5553C64.0864 79.4409 65.2495 69.3038 64.8532 58.9604C63.5502 24.9505 45.8822 1.58895 32.0598 2.11851C18.2374 2.64806 1.30091 27.3353 2.60388 61.3452C3.00004 71.6856 5.03667 81.6973 8.0681 90.6094C8.42652 91.6631 9.93075 91.3354 9.88814 90.2232V90.2232C8.58517 56.2133 18.7342 28.2136 32.5566 27.684C46.3789 27.1545 58.6405 54.2956 59.9434 88.3055V88.3055Z" fill="#1F5F84"/>
<path d="M59.9434 88.3055C59.9887 89.4879 61.6095 89.7056 61.887 88.5553C64.0864 79.4409 65.2495 69.3038 64.8532 58.9604C63.5502 24.9505 45.8822 1.58895 32.0598 2.11851C18.2374 2.64806 1.30091 27.3353 2.60388 61.3452C3.00004 71.6856 5.03667 81.6973 8.0681 90.6094C8.42652 91.6631 9.93075 91.3354 9.88814 90.2232V90.2232C8.58517 56.2133 18.7342 28.2136 32.5566 27.684C46.3789 27.1545 58.6405 54.2956 59.9434 88.3055V88.3055Z" fill="#1F5F84"/>
<path d="M14.8492 45.2267H51.004L55.2221 57.5943H32.6253H10.0285L14.8492 45.2267Z" fill="#926D0F"/>
<path d="M70.9997 51.003L71.0089 48.296L72.8731 48.0386L81.4223 25.4444L85.7289 25.459L94.0194 48.1102L95.8818 48.3802L95.8726 51.0872L87.734 51.0597L87.7432 48.3527L89.5724 48.0249L88.2325 43.9949L78.7052 43.9627L77.303 47.9833L79.1475 48.3235L79.1384 51.0306L70.9997 51.003ZM79.8769 40.5564L87.1015 40.5809L83.8113 31.1127L83.5851 30.4264L83.4796 30.426L83.2311 31.1459L79.8769 40.5564ZM97.3232 51.0921L97.3323 48.3851L99.9708 47.8667L100.013 35.3336L97.2377 34.7968L97.2469 32.0722L104.102 32.0955L104.322 34.856C104.958 33.8738 105.745 33.1147 106.685 32.5788C107.636 32.0312 108.709 31.7595 109.904 31.7635C111.861 31.7702 113.383 32.3788 114.468 33.5895C115.554 34.8003 116.093 36.6771 116.084 39.2201L116.055 47.9212L118.69 48.4574L118.68 51.1645L109.136 51.1321L109.145 48.4251L111.625 47.9062L111.654 39.2402C111.659 37.7988 111.376 36.7783 110.803 36.1787C110.231 35.5674 109.377 35.2598 108.24 35.256C107.396 35.2531 106.652 35.4439 106.006 35.8285C105.36 36.2013 104.837 36.7269 104.436 37.4052L104.4 47.8817L106.807 48.4172L106.798 51.1242L97.3232 51.0921ZM120.597 58.8526C119.789 58.8499 119.021 58.7477 118.295 58.546L118.553 55.1894C119.056 55.3435 119.63 55.4216 120.275 55.4238C120.966 55.4261 121.5 55.1467 121.877 54.5855C122.266 54.0243 122.462 53.2456 122.465 52.2495L122.522 35.4098L119.729 34.873L119.738 32.1484L126.963 32.1729L126.895 52.2645C126.888 54.3856 126.326 56.0126 125.208 57.1456C124.103 58.2903 122.566 58.8593 120.597 58.8526ZM122.337 27.8505L122.351 23.7549L126.956 23.7704L126.942 27.8661L122.337 27.8505ZM138.174 51.5996C136.135 51.5927 134.543 50.9428 133.399 49.6498C132.267 48.3452 131.705 46.3277 131.715 43.5972L131.742 35.441L129.6 34.9064L129.609 32.1818L136.183 32.2041L136.144 43.6474C136.139 45.288 136.393 46.4432 136.906 47.1129C137.431 47.7709 138.239 48.1018 139.328 48.1054C141.227 48.1119 142.583 47.384 143.396 45.9219L143.432 35.4806L141.043 34.9452L141.052 32.2206L147.872 32.2437L147.819 48.0287L150.067 48.5637L150.058 51.2707L143.888 51.2498L143.598 48.6648C142.997 49.612 142.233 50.3419 141.305 50.8543C140.39 51.3552 139.346 51.6036 138.174 51.5996ZM151.561 51.2758L151.57 48.5688L154.226 48.0504L154.297 27.115L151.487 26.5781L151.496 23.8535L158.738 23.8781L158.656 48.0654L161.291 48.6017L161.282 51.3087L151.561 51.2758ZM169.217 51.7047C167.284 51.6982 165.78 51.195 164.705 50.1953C163.63 49.1956 163.096 47.8226 163.102 46.0766C163.108 44.2836 163.839 42.8329 165.296 41.7246C166.765 40.6163 168.864 40.0667 171.595 40.076L174.495 40.0858L174.501 38.4862C174.504 37.4784 174.202 36.6746 173.595 36.0749C172.999 35.4752 172.127 35.1735 170.979 35.1696C170.322 35.1674 169.742 35.2474 169.237 35.4098C168.733 35.5604 168.281 35.7815 167.882 36.0732L167.486 38.6382L164.217 38.6272L164.198 33.9337C165.125 33.3158 166.164 32.8329 167.314 32.4853C168.475 32.1376 169.759 31.9662 171.165 31.971C173.579 31.9791 175.476 32.5539 176.855 33.6953C178.245 34.8368 178.937 36.4563 178.93 38.5539L178.902 46.9387C178.901 47.1965 178.9 47.4484 178.899 47.6945C178.91 47.9289 178.927 48.1692 178.949 48.4154L180.882 48.668L180.873 51.375L175.09 51.3555C174.974 50.9449 174.864 50.5461 174.76 50.159C174.667 49.772 174.598 49.385 174.553 48.9982C173.917 49.7929 173.148 50.4465 172.243 50.9591C171.339 51.46 170.331 51.7085 169.217 51.7047ZM170.231 48.2804C171.133 48.2835 171.966 48.0812 172.729 47.6736C173.504 47.2544 174.086 46.729 174.475 46.0975L174.486 42.9159L171.532 42.9059C170.208 42.9014 169.205 43.2085 168.523 43.8273C167.853 44.4344 167.517 45.1481 167.514 45.9685C167.509 47.5036 168.415 48.2743 170.231 48.2804Z" fill="#1F5F84"/>
<path d="M89.1454 63.2051L81.6046 63.1572L81.4736 84.0718L78.3961 84.0523L78.527 63.1376L71.0023 63.0898L71.0182 60.544L89.1614 60.6593L89.1454 63.2051ZM94.9363 84.1574L91.9554 84.1384L92.0646 66.7042L95.0455 66.7231L94.9363 84.1574ZM91.8519 62.0782C91.8549 61.5949 92.0025 61.1876 92.2946 60.8564C92.5974 60.5253 93.0389 60.3616 93.619 60.3653C94.199 60.369 94.6384 60.5383 94.9371 60.8732C95.2358 61.2081 95.3836 61.6173 95.3806 62.1007C95.3776 62.5841 95.2247 62.9859 94.9219 63.3063C94.6191 63.6266 94.1776 63.785 93.5976 63.7813C93.0175 63.7776 92.5781 63.6137 92.2793 63.2895C91.9913 62.9654 91.8488 62.5616 91.8519 62.0782ZM102.305 66.7693L102.373 68.7033C103.661 67.2076 105.39 66.4666 107.56 66.4804C109.998 66.4959 111.652 67.441 112.521 69.3157C113.106 68.4815 113.862 67.8095 114.789 67.2998C115.727 66.7901 116.83 66.5393 118.097 66.5474C121.922 66.5717 123.853 68.6089 123.892 72.659L123.819 84.3409L120.838 84.322L120.91 72.8173C120.918 71.5712 120.639 70.6403 120.074 70.0243C119.508 69.3977 118.554 69.0801 117.211 69.0716C116.105 69.0645 115.185 69.3917 114.45 70.0531C113.715 70.7037 113.285 71.5872 113.16 72.7036L113.088 84.2727L110.091 84.2537L110.162 72.8296C110.178 70.2945 108.946 69.019 106.464 69.0033C104.509 68.9908 103.167 69.8149 102.436 71.4753L102.357 84.2045L99.3758 84.1856L99.4849 66.7514L102.305 66.7693ZM138.181 79.8076C138.186 79.0019 137.884 78.3769 137.274 77.9326C136.675 77.4776 135.62 77.0842 134.107 76.7523C132.605 76.4205 131.41 76.0262 130.521 75.5694C129.643 75.1126 128.991 74.5713 128.566 73.9456C128.15 73.3199 127.946 72.5773 127.951 71.718C127.96 70.2893 128.569 69.0847 129.778 68.104C130.998 67.1235 132.548 66.6392 134.428 66.6511C136.405 66.6637 138.002 67.1841 139.22 68.2124C140.449 69.2407 141.059 70.5498 141.049 72.1396L138.052 72.1206C138.057 71.3042 137.712 70.5984 137.018 70.0031C136.334 69.4079 135.466 69.107 134.413 69.1003C133.328 69.0934 132.478 69.3243 131.863 69.7931C131.247 70.2619 130.937 70.8776 130.933 71.6403C130.928 72.36 131.209 72.9042 131.776 73.2731C132.343 73.6419 133.367 73.9976 134.847 74.34C136.338 74.6825 137.544 75.0876 138.465 75.5554C139.386 76.0232 140.065 76.5861 140.501 77.2441C140.948 77.8915 141.169 78.6825 141.163 79.617C141.153 81.1746 140.522 82.4221 139.27 83.3595C138.019 84.2861 136.399 84.7431 134.412 84.7305C133.015 84.7216 131.781 84.4667 130.71 83.9658C129.639 83.4648 128.8 82.772 128.194 81.8872C127.598 80.9918 127.303 80.0285 127.309 78.9973L130.29 79.0162C130.338 80.0156 130.73 80.813 131.468 81.4085C132.216 81.9933 133.202 82.2897 134.427 82.2974C135.555 82.3046 136.459 82.0848 137.138 81.6379C137.829 81.1804 138.176 80.5703 138.181 79.8076ZM147.925 84.4941L144.944 84.4752L145.053 67.0409L148.034 67.0599L147.925 84.4941ZM144.84 62.415C144.843 61.9316 144.991 61.5243 145.283 61.1931C145.586 60.8621 146.027 60.6984 146.607 60.702C147.187 60.7057 147.627 60.875 147.926 61.2099C148.224 61.5449 148.372 61.954 148.369 62.4374C148.366 62.9208 148.213 63.3227 147.91 63.643C147.607 63.9633 147.166 64.1217 146.586 64.118C146.006 64.1143 145.567 63.9504 145.268 63.6262C144.98 63.3021 144.837 62.8984 144.84 62.415Z" fill="#926D0F"/>
<path d="M174.875 85H169.628L160.178 68.8672V85H155.273V60.4932H160.52L169.97 76.6431V60.4932H174.875V85Z" fill="#1F5F84"/>
<path d="M196.315 85H195.187L193.375 82.4878C192.931 82.8866 192.458 83.2625 191.957 83.6157C191.467 83.9575 190.948 84.2594 190.401 84.5215C189.855 84.7721 189.291 84.9715 188.71 85.1196C188.14 85.2677 187.559 85.3418 186.966 85.3418C185.679 85.3418 184.466 85.1253 183.326 84.6924C182.198 84.2594 181.207 83.6328 180.353 82.8125C179.51 81.9808 178.843 80.9668 178.353 79.7705C177.863 78.5742 177.618 77.2127 177.618 75.686C177.618 74.2619 177.863 72.9574 178.353 71.7725C178.843 70.5762 179.51 69.5508 180.353 68.6963C181.207 67.8418 182.198 67.181 183.326 66.7139C184.466 66.2354 185.679 65.9961 186.966 65.9961C187.559 65.9961 188.146 66.0701 188.727 66.2183C189.308 66.3664 189.872 66.5715 190.419 66.8335C190.965 67.0955 191.484 67.4032 191.974 67.7563C192.475 68.1095 192.942 68.4912 193.375 68.9014L195.187 66.731H196.315V85ZM191.615 75.686C191.615 75.048 191.49 74.4328 191.239 73.8403C191 73.2365 190.669 72.7067 190.248 72.251C189.826 71.7839 189.331 71.4136 188.761 71.1401C188.203 70.8553 187.604 70.7129 186.966 70.7129C186.328 70.7129 185.725 70.8211 185.155 71.0376C184.597 71.2541 184.107 71.5731 183.685 71.9946C183.275 72.4162 182.95 72.9403 182.711 73.5669C182.472 74.1821 182.352 74.8885 182.352 75.686C182.352 76.4836 182.472 77.1956 182.711 77.8223C182.95 78.4375 183.275 78.9559 183.685 79.3774C184.107 79.799 184.597 80.118 185.155 80.3345C185.725 80.5509 186.328 80.6592 186.966 80.6592C187.604 80.6592 188.203 80.5225 188.761 80.249C189.331 79.9642 189.826 79.5939 190.248 79.1382C190.669 78.6711 191 78.1413 191.239 77.5488C191.49 76.945 191.615 76.3241 191.615 75.686Z" fill="#926D0F"/>
<rect x="27" y="49.1479" width="13" height="44" fill="#926D0F"/>
<path d="M31.9394 98.0607C32.5252 98.6464 33.4749 98.6464 34.0607 98.0607L43.6066 88.5147C44.1924 87.9289 44.1924 86.9792 43.6066 86.3934C43.0208 85.8076 42.0711 85.8076 41.4853 86.3934L33 94.8787L24.5147 86.3934C23.929 85.8076 22.9792 85.8076 22.3934 86.3934C21.8076 86.9792 21.8076 87.9289 22.3934 88.5147L31.9394 98.0607ZM31.5 60L31.5 97H34.5V60H31.5Z" fill="#154966"/>
</svg>
